# xmcd CD database file
#
# Track frame offsets:
#	150
#	32376
#	66880
#	97143
#	130731
#	163033
#	195394
#	223082
#	259112
#	288994
#
# Disc length: 4275 seconds
#
# Revision: 0
# Processed by: cddbd v1.5.1PL0 Copyright (c) Steve Scherf et al.
# Submitted via: CDex 1.51
#
DISCID=8f10b10a
DTITLE=la india de oriente - desde cuba con sabor
DYEAR=1900
DGENRE=Salsa
TTITLE0=la casita
TTITLE1=mi ranchito
TTITLE2=el fiel enamorado
TTITLE3=guajira guantanamera
TTITLE4=a bailar el son
TTITLE5=junto a un cañaveral
TTITLE6=romance guajiro
TTITLE7=el madrugador
TTITLE8=romance campesino
TTITLE9=yo soy el punto de cuba
EXTD=
EXTT0=
EXTT1=
EXTT2=
EXTT3=
EXTT4=
EXTT5=
EXTT6=
EXTT7=
EXTT8=
EXTT9=
PLAYORDER=
